# Blender v2.74 (sub 0) OBJ File: ''
# www.blender.org
mtllib creditcard-bigballs.mtl
o Cube
v 7.999397 -0.122400 -4.600000
v 7.599427 -0.136000 -4.600000
v 7.599427 -0.122400 -5.000000
v 7.968951 -0.127605 -4.600000
v 7.882249 -0.132017 -4.600000
v 7.968952 -0.122397 -4.753074
v 7.932207 -0.127735 -4.756909
v 7.861909 -0.131326 -4.748948
v 7.830350 -0.130252 -4.830940
v 7.599427 -0.134965 -4.753074
v 7.599427 -0.132017 -4.882843
v 7.752489 -0.134965 -4.600000
v 7.756325 -0.133716 -4.756909
v 7.748364 -0.131326 -4.862502
v 7.752489 -0.122400 -4.969552
v 7.882249 -0.122400 -4.882843
v 7.599427 -0.127605 -4.969552
v 7.756325 -0.127735 -4.932804
v 7.861909 -0.127465 -4.862502
v 7.599427 -0.122400 5.000000
v 7.599427 -0.136000 4.600000
v 7.999397 -0.122400 4.600000
v 7.599427 -0.127605 4.969552
v 7.599427 -0.132017 4.882843
v 7.752489 -0.122400 4.969552
v 7.756325 -0.127735 4.932805
v 7.748364 -0.131326 4.862502
v 7.830350 -0.130252 4.830940
v 7.752489 -0.134965 4.600000
v 7.882249 -0.132017 4.600000
v 7.599427 -0.134965 4.753074
v 7.756325 -0.133716 4.756910
v 7.861909 -0.131326 4.748949
v 7.968951 -0.122400 4.753074
v 7.882249 -0.122400 4.882843
v 7.968952 -0.127605 4.600000
v 7.932207 -0.127735 4.756910
v 7.861909 -0.127465 4.862502
v 7.999399 0.122403 -4.599998
v 7.599429 0.122403 -4.999998
v 7.599429 0.136003 -4.599998
v 7.968953 0.122403 -4.753072
v 7.882251 0.122403 -4.882841
v 7.830352 0.130255 -4.830938
v 7.599429 0.132020 -4.882841
v 7.752491 0.122403 -4.969550
v 7.748366 0.131328 -4.862500
v 7.752491 0.134968 -4.599998
v 7.882251 0.132020 -4.599998
v 7.599429 0.134968 -4.753072
v 7.756327 0.133719 -4.756907
v 7.861911 0.131328 -4.748946
v 7.599425 0.136003 4.600002
v 7.599425 0.122403 5.000002
v 7.999395 0.122403 4.600002
v 7.599424 0.134968 4.753076
v 7.599424 0.132020 4.882845
v 7.752486 0.134968 4.600002
v 7.756322 0.133719 4.756912
v 7.748362 0.131328 4.862504
v 7.830348 0.130255 4.830943
v 7.752486 0.122403 4.969554
v 7.882246 0.122403 4.882845
v 7.882246 0.132020 4.600002
v 7.968949 0.122403 4.753076
v 7.861907 0.131328 4.748951
v -7.999397 -0.122400 -4.600000
v -7.599427 -0.136000 -4.600000
v -7.599427 -0.122400 -5.000000
v -7.968951 -0.127605 -4.600000
v -7.882249 -0.132017 -4.600000
v -7.968952 -0.122397 -4.753074
v -7.932207 -0.127735 -4.756909
v -7.861909 -0.131326 -4.748948
v -7.830350 -0.130252 -4.830940
v -7.599427 -0.134965 -4.753074
v -7.599427 -0.132017 -4.882843
v -7.752489 -0.134965 -4.600000
v -7.756325 -0.133716 -4.756909
v -7.748364 -0.131326 -4.862502
v -7.752489 -0.122400 -4.969552
v -7.882249 -0.122400 -4.882843
v -7.599427 -0.127605 -4.969552
v -7.756325 -0.127735 -4.932804
v -7.861909 -0.127465 -4.862502
v -7.599427 -0.122400 5.000000
v -7.599427 -0.136000 4.600000
v -7.999397 -0.122400 4.600000
v -7.599427 -0.127605 4.969552
v -7.599427 -0.132017 4.882843
v -7.752489 -0.122400 4.969552
v -7.756325 -0.127735 4.932805
v -7.748364 -0.131326 4.862502
v -7.830350 -0.130252 4.830940
v -7.752489 -0.134965 4.600000
v -7.882249 -0.132017 4.600000
v -7.599427 -0.134965 4.753074
v -7.756325 -0.133716 4.756910
v -7.861909 -0.131326 4.748949
v -7.968951 -0.122400 4.753074
v -7.882249 -0.122400 4.882843
v -7.968952 -0.127605 4.600000
v -7.932207 -0.127735 4.756910
v -7.861909 -0.127465 4.862502
v -7.999399 0.122403 -4.599998
v -7.599429 0.122403 -4.999998
v -7.599429 0.136003 -4.599998
v -7.968953 0.122403 -4.753072
v -7.882251 0.122403 -4.882841
v -7.830352 0.130255 -4.830938
v -7.599429 0.132020 -4.882841
v -7.752491 0.122403 -4.969550
v -7.748366 0.131328 -4.862500
v -7.752491 0.134968 -4.599998
v -7.882251 0.132020 -4.599998
v -7.599429 0.134968 -4.753072
v -7.756327 0.133719 -4.756907
v -7.861911 0.131328 -4.748946
v -7.599425 0.136003 4.600002
v -7.599425 0.122403 5.000002
v -7.999395 0.122403 4.600002
v -7.599424 0.134968 4.753076
v -7.599424 0.132020 4.882845
v -7.752486 0.134968 4.600002
v -7.756322 0.133719 4.756912
v -7.748362 0.131328 4.862504
v -7.830348 0.130255 4.830943
v -7.752486 0.122403 4.969554
v -7.882246 0.122403 4.882845
v -7.882246 0.132020 4.600002
v -7.968949 0.122403 4.753076
v -7.861907 0.131328 4.748951
vt 0.927040 0.045598
vt 0.949633 0.045597
vt 0.949633 0.778926
vt 0.927040 0.778926
vt 0.972226 0.045597
vt 0.972226 0.489455
vt 0.949633 0.489454
vt 0.114892 0.970617
vt 0.114892 0.533052
vt 0.837771 0.533052
vt 0.837771 0.970617
vt 0.097105 0.471527
vt 0.098438 0.471585
vt 0.100169 0.478990
vt 0.098541 0.478747
vt 0.102442 0.471635
vt 0.103415 0.478656
vt 0.103491 0.483969
vt 0.102631 0.484868
vt 0.104926 0.482512
vt 0.115713 0.471679
vt 0.115733 0.478893
vt 0.108352 0.479059
vt 0.108509 0.471668
vt 0.115789 0.484983
vt 0.108774 0.484014
vt 0.115971 0.490394
vt 0.108751 0.488958
vt 0.108467 0.487289
vt 0.115873 0.489021
vt 0.115971 0.018703
vt 0.115873 0.020076
vt 0.108467 0.021809
vt 0.108751 0.020139
vt 0.115789 0.024115
vt 0.108774 0.025083
vt 0.103491 0.025129
vt 0.102631 0.024229
vt 0.104926 0.026585
vt 0.115713 0.037419
vt 0.108509 0.037430
vt 0.108352 0.030039
vt 0.115733 0.030205
vt 0.102442 0.037463
vt 0.103415 0.030442
vt 0.097105 0.037570
vt 0.098541 0.030350
vt 0.100169 0.030108
vt 0.098438 0.037512
vt 0.850860 0.983849
vt 0.848602 0.981509
vt 0.850131 0.977628
vt 0.854980 0.977683
vt 0.837421 0.989416
vt 0.837669 0.984005
vt 0.844732 0.983027
vt 0.844694 0.987969
vt 0.844694 0.515698
vt 0.844732 0.520642
vt 0.837669 0.519664
vt 0.837421 0.514251
vt 0.845024 0.970601
vt 0.845174 0.978044
vt 0.837745 0.977881
vt 0.851116 0.970556
vt 0.837745 0.525788
vt 0.845173 0.525625
vt 0.845024 0.533068
vt 0.850131 0.526041
vt 0.851116 0.533112
vt 0.848602 0.522160
vt 0.850860 0.519818
vt 0.856426 0.533258
vt 0.854980 0.525984
vt 0.856426 0.970410
vt 0.904447 0.045597
vt 0.904447 0.038212
vt 0.927040 0.038212
vt 0.904447 0.031952
vt 0.927040 0.031952
vt 0.949633 0.031952
vt 0.972226 0.031952
vt 0.972226 0.038213
vt 0.949633 0.038212
vt 0.972226 0.496840
vt 0.949633 0.496840
vt 0.972226 0.503100
vt 0.949633 0.503100
vt 0.949633 0.792572
vt 0.927040 0.792572
vt 0.927040 0.786311
vt 0.949633 0.786311
vt 0.096220 0.970410
vt 0.101542 0.970556
vt 0.102527 0.977628
vt 0.097667 0.977683
vt 0.833114 0.478893
vt 0.833061 0.484983
vt 0.832982 0.489021
vt 0.832888 0.490394
vt 0.832888 0.018703
vt 0.832982 0.020076
vt 0.833061 0.024115
vt 0.833114 0.030205
vt 0.833133 0.037419
vt 0.115225 0.514251
vt 0.114990 0.519664
vt 0.114990 0.984005
vt 0.114918 0.977881
vt 0.114918 0.525788
vt 0.833133 0.471679
vt 0.904447 0.778927
vt 0.972226 0.516746
vt 0.972226 0.960603
vt 0.949633 0.960603
vt 0.949633 0.516746
vt 0.851754 0.471527
vt 0.850318 0.478747
vt 0.848685 0.478990
vt 0.850417 0.471585
vt 0.845436 0.478656
vt 0.846408 0.471635
vt 0.846228 0.484868
vt 0.845363 0.483969
vt 0.843926 0.482512
vt 0.840339 0.471668
vt 0.840497 0.479059
vt 0.840077 0.484015
vt 0.840387 0.487289
vt 0.840108 0.488958
vt 0.840108 0.020139
vt 0.840387 0.021809
vt 0.840077 0.025083
vt 0.846228 0.024229
vt 0.845363 0.025129
vt 0.843926 0.026585
vt 0.840497 0.030039
vt 0.840339 0.037430
vt 0.845436 0.030442
vt 0.846408 0.037463
vt 0.851754 0.037570
vt 0.850417 0.037512
vt 0.848685 0.030108
vt 0.850318 0.030350
vt 0.104054 0.981509
vt 0.101786 0.983849
vt 0.107952 0.987969
vt 0.107925 0.983027
vt 0.115225 0.989416
vt 0.107926 0.520642
vt 0.107952 0.515698
vt 0.107487 0.978044
vt 0.107638 0.970601
vt 0.107638 0.533068
vt 0.107487 0.525625
vt 0.101542 0.533112
vt 0.102527 0.526041
vt 0.104054 0.522160
vt 0.101787 0.519818
vt 0.097667 0.525984
vt 0.096220 0.533258
vt 0.904447 0.786312
vt 0.904447 0.792572
vt 0.972226 0.509361
vt 0.949633 0.509361
vt 0.972226 0.967988
vt 0.949633 0.967988
vt 0.972226 0.974249
vt 0.949633 0.974249
vn 0.000000 -0.000000 1.000000
vn 1.000000 -0.000000 0.000000
vn 0.000000 1.000000 -0.000000
vn 0.156800 -0.987100 -0.033600
vn 0.050300 -0.998700 -0.011200
vn 0.150000 -0.983500 -0.101200
vn 0.049300 -0.998200 -0.033900
vn 0.007300 -0.999900 -0.007300
vn 0.007600 -0.999700 -0.022900
vn 0.022900 -0.999700 -0.007600
vn 0.023400 -0.999500 -0.023400
vn 0.033600 -0.987100 -0.156700
vn 0.101100 -0.983500 -0.149900
vn 0.011200 -0.998700 -0.050300
vn 0.033900 -0.998200 -0.049300
vn 0.033600 -0.987100 0.156700
vn 0.011200 -0.998700 0.050300
vn 0.101200 -0.983500 0.149900
vn 0.033900 -0.998200 0.049300
vn 0.007300 -0.999900 0.007300
vn 0.022900 -0.999700 0.007600
vn 0.007600 -0.999700 0.022900
vn 0.023400 -0.999500 0.023400
vn 0.156800 -0.987100 0.033600
vn 0.149900 -0.983500 0.101200
vn 0.050300 -0.998700 0.011200
vn 0.049300 -0.998200 0.033900
vn 0.086300 0.994900 -0.053200
vn 0.016100 0.996500 -0.082100
vn 0.053200 0.994900 -0.086200
vn 0.016100 0.996500 0.082100
vn 0.007300 0.999900 -0.007300
vn 0.022900 0.999700 -0.007600
vn 0.007600 0.999700 -0.022900
vn 0.023400 0.999500 -0.023400
vn 0.007300 0.999900 0.007300
vn 0.007600 0.999700 0.022900
vn 0.022900 0.999700 0.007600
vn 0.023400 0.999500 0.023400
vn 0.053200 0.994900 0.086200
vn 0.082100 0.996500 0.016100
vn 0.086300 0.994900 0.053200
vn 0.081800 0.996600 0.000000
vn 0.168500 -0.985700 -0.000000
vn 0.050800 -0.998700 -0.000000
vn 0.022700 -0.999700 0.000000
vn 0.006800 -1.000000 0.000000
vn 0.195100 0.000000 -0.980800
vn 0.555600 0.000000 -0.831500
vn 0.831500 -0.000000 -0.555500
vn 0.980800 -0.000000 -0.195100
vn 0.980800 0.000000 0.195100
vn 0.831500 0.000000 0.555500
vn 0.555600 -0.000000 0.831500
vn 0.195100 -0.000000 0.980800
vn 0.006800 1.000000 0.000000
vn 0.022700 0.999700 0.000000
vn -0.082100 0.996500 -0.016100
vn 0.000000 -0.999700 -0.022700
vn 0.000000 -0.998700 -0.050800
vn 0.000000 -0.985700 -0.168500
vn 0.000000 -0.985700 0.168500
vn 0.000000 -0.998700 0.050800
vn 0.000000 -0.999700 0.022700
vn 0.000000 -1.000000 0.006800
vn 0.000000 0.996600 0.081800
vn 0.000000 0.999700 -0.022700
vn 0.000000 1.000000 -0.006800
vn 0.000000 1.000000 0.006800
vn 0.000000 0.999700 0.022700
vn 0.000000 -1.000000 0.000000
vn 0.000000 0.000000 -1.000000
vn -1.000000 0.000000 0.000000
vn -0.156800 -0.987100 -0.033600
vn -0.050300 -0.998700 -0.011200
vn -0.150000 -0.983500 -0.101200
vn -0.049300 -0.998200 -0.033900
vn -0.007300 -0.999900 -0.007300
vn -0.007600 -0.999700 -0.022900
vn -0.022900 -0.999700 -0.007600
vn -0.023400 -0.999500 -0.023400
vn -0.033600 -0.987100 -0.156700
vn -0.101100 -0.983500 -0.149900
vn -0.011200 -0.998700 -0.050300
vn -0.033900 -0.998200 -0.049300
vn -0.033600 -0.987100 0.156700
vn -0.011200 -0.998700 0.050300
vn -0.101200 -0.983500 0.149900
vn -0.033900 -0.998200 0.049300
vn -0.007300 -0.999900 0.007300
vn -0.022900 -0.999700 0.007600
vn -0.007600 -0.999700 0.022900
vn -0.023400 -0.999500 0.023400
vn -0.156800 -0.987100 0.033600
vn -0.149900 -0.983500 0.101200
vn -0.050300 -0.998700 0.011200
vn -0.049300 -0.998200 0.033900
vn -0.086300 0.994900 -0.053200
vn -0.016100 0.996500 -0.082100
vn -0.053200 0.994900 -0.086200
vn -0.016100 0.996500 0.082100
vn -0.007300 0.999900 -0.007300
vn -0.022900 0.999700 -0.007600
vn -0.007600 0.999700 -0.022900
vn -0.023400 0.999500 -0.023400
vn -0.007300 0.999900 0.007300
vn -0.007600 0.999700 0.022900
vn -0.022900 0.999700 0.007600
vn -0.023400 0.999500 0.023400
vn -0.053200 0.994900 0.086200
vn -0.082100 0.996500 0.016100
vn -0.086300 0.994900 0.053200
vn -0.081800 0.996600 0.000000
vn -0.168500 -0.985700 -0.000000
vn -0.050800 -0.998700 -0.000000
vn -0.022700 -0.999700 0.000000
vn -0.006800 -1.000000 0.000000
vn -0.195100 0.000000 -0.980800
vn -0.555600 0.000000 -0.831500
vn -0.831500 0.000000 -0.555500
vn -0.980800 -0.000000 -0.195100
vn -0.980800 0.000000 0.195100
vn -0.831500 0.000000 0.555500
vn -0.555600 -0.000000 0.831500
vn -0.195100 -0.000000 0.980800
vn -0.006800 1.000000 0.000000
vn -0.022700 0.999700 0.000000
vn 0.000000 0.996600 -0.081800
vn 0.000000 -1.000000 -0.006800
vn 0.082100 0.996500 -0.016100
usemtl Material
s off
f 120/1/1 86/2/1 20/3/1 54/4/1
f 1/2/2 39/5/2 55/6/2 22/7/2
f 107/8/3 119/9/3 53/10/3 41/11/3
f 1/12/4 4/13/4 7/14/4 6/15/4
f 4/13/5 5/16/5 8/17/5 7/14/5
f 6/15/6 7/14/6 19/18/6 16/19/6
f 7/14/7 8/17/7 9/20/7 19/18/7
f 2/21/8 10/22/8 13/23/8 12/24/8
f 10/22/9 11/25/9 14/26/9 13/23/9
f 12/24/10 13/23/10 8/17/10 5/16/10
f 13/23/11 14/26/11 9/20/11 8/17/11
f 3/27/12 15/28/12 18/29/12 17/30/12
f 15/28/13 16/19/13 19/18/13 18/29/13
f 17/30/14 18/29/14 14/26/14 11/25/14
f 18/29/15 19/18/15 9/20/15 14/26/15
f 20/31/16 23/32/16 26/33/16 25/34/16
f 23/32/17 24/35/17 27/36/17 26/33/17
f 25/34/18 26/33/18 38/37/18 35/38/18
f 26/33/19 27/36/19 28/39/19 38/37/19
f 21/40/20 29/41/20 32/42/20 31/43/20
f 29/41/21 30/44/21 33/45/21 32/42/21
f 31/43/22 32/42/22 27/36/22 24/35/22
f 32/42/23 33/45/23 28/39/23 27/36/23
f 22/46/24 34/47/24 37/48/24 36/49/24
f 34/47/25 35/38/25 38/37/25 37/48/25
f 36/49/26 37/48/26 33/45/26 30/44/26
f 37/48/27 38/37/27 28/39/27 33/45/27
f 43/50/28 44/51/28 52/52/28 42/53/28
f 40/54/29 45/55/29 47/56/29 46/57/29
f 46/57/30 47/56/30 44/51/30 43/50/30
f 62/58/31 60/59/31 57/60/31 54/61/31
f 41/11/32 48/62/32 51/63/32 50/64/32
f 48/62/33 49/65/33 52/52/33 51/63/33
f 50/64/34 51/63/34 47/56/34 45/55/34
f 51/63/35 52/52/35 44/51/35 47/56/35
f 53/10/36 56/66/36 59/67/36 58/68/36
f 56/66/37 57/60/37 60/59/37 59/67/37
f 58/68/38 59/67/38 66/69/38 64/70/38
f 59/67/39 60/59/39 61/71/39 66/69/39
f 63/72/40 61/71/40 60/59/40 62/58/40
f 55/73/41 64/70/41 66/69/41 65/74/41
f 65/74/42 66/69/42 61/71/42 63/72/42
f 55/73/43 39/75/43 49/65/43 64/70/43
f 1/12/44 22/46/44 36/49/44 4/13/44
f 4/13/45 36/49/45 30/44/45 5/16/45
f 5/16/46 30/44/46 29/41/46 12/24/46
f 12/24/47 29/41/47 21/40/47 2/21/47
f 3/1/48 40/76/48 46/77/48 15/78/48
f 15/78/49 46/77/49 43/79/49 16/80/49
f 16/81/50 43/82/50 42/83/50 6/84/50
f 6/84/51 42/83/51 39/5/51 1/2/51
f 22/7/52 55/6/52 65/85/52 34/86/52
f 34/86/53 65/85/53 63/87/53 35/88/53
f 35/89/54 63/90/54 62/91/54 25/92/54
f 25/92/55 62/91/55 54/4/55 20/3/55
f 41/11/56 53/10/56 58/68/56 48/62/56
f 48/62/57 58/68/57 64/70/57 49/65/57
f 105/93/58 115/94/58 118/95/58 108/96/58
f 76/97/59 77/98/59 11/25/59 10/22/59
f 77/98/60 83/99/60 17/30/60 11/25/60
f 83/99/61 69/100/61 3/27/61 17/30/61
f 86/101/62 89/102/62 23/32/62 20/31/62
f 89/102/63 90/103/63 24/35/63 23/32/63
f 90/103/64 97/104/64 31/43/64 24/35/64
f 97/104/65 87/105/65 21/40/65 31/43/65
f 120/106/66 54/61/66 57/60/66 123/107/66
f 111/108/67 116/109/67 50/64/67 45/55/67
f 116/109/68 107/8/68 41/11/68 50/64/68
f 119/9/69 122/110/69 56/66/69 53/10/69
f 122/110/70 123/107/70 57/60/70 56/66/70
f 87/105/71 68/111/71 2/21/71 21/40/71
f 69/4/72 106/112/72 40/76/72 3/1/72
f 67/113/73 88/114/73 121/115/73 105/116/73
f 67/117/74 72/118/74 73/119/74 70/120/74
f 70/120/75 73/119/75 74/121/75 71/122/75
f 72/118/76 82/123/76 85/124/76 73/119/76
f 73/119/77 85/124/77 75/125/77 74/121/77
f 68/111/78 78/126/78 79/127/78 76/97/78
f 76/97/79 79/127/79 80/128/79 77/98/79
f 78/126/80 71/122/80 74/121/80 79/127/80
f 79/127/81 74/121/81 75/125/81 80/128/81
f 69/100/82 83/99/82 84/129/82 81/130/82
f 81/130/83 84/129/83 85/124/83 82/123/83
f 83/99/84 77/98/84 80/128/84 84/129/84
f 84/129/85 80/128/85 75/125/85 85/124/85
f 86/101/86 91/131/86 92/132/86 89/102/86
f 89/102/87 92/132/87 93/133/87 90/103/87
f 91/131/88 101/134/88 104/135/88 92/132/88
f 92/132/89 104/135/89 94/136/89 93/133/89
f 87/105/90 97/104/90 98/137/90 95/138/90
f 95/138/91 98/137/91 99/139/91 96/140/91
f 97/104/92 90/103/92 93/133/92 98/137/92
f 98/137/93 93/133/93 94/136/93 99/139/93
f 88/141/94 102/142/94 103/143/94 100/144/94
f 100/144/95 103/143/95 104/135/95 101/134/95
f 102/142/96 96/140/96 99/139/96 103/143/96
f 103/143/97 99/139/97 94/136/97 104/135/97
f 108/96/98 118/95/98 110/145/98 109/146/98
f 112/147/99 113/148/99 111/108/99 106/149/99
f 109/146/100 110/145/100 113/148/100 112/147/100
f 120/106/101 123/107/101 126/150/101 128/151/101
f 107/8/102 116/109/102 117/152/102 114/153/102
f 114/153/103 117/152/103 118/95/103 115/94/103
f 116/109/104 111/108/104 113/148/104 117/152/104
f 117/152/105 113/148/105 110/145/105 118/95/105
f 119/9/106 124/154/106 125/155/106 122/110/106
f 122/110/107 125/155/107 126/150/107 123/107/107
f 124/154/108 130/156/108 132/157/108 125/155/108
f 125/155/109 132/157/109 127/158/109 126/150/109
f 128/151/110 126/150/110 127/158/110 129/159/110
f 131/160/111 132/157/111 130/156/111 121/161/111
f 129/159/112 127/158/112 132/157/112 131/160/112
f 105/93/113 121/161/113 130/156/113 115/94/113
f 67/117/114 70/120/114 102/142/114 88/141/114
f 70/120/115 71/122/115 96/140/115 102/142/115
f 71/122/116 78/126/116 95/138/116 96/140/116
f 78/126/117 68/111/117 87/105/117 95/138/117
f 69/4/118 81/91/118 112/162/118 106/112/118
f 81/91/119 82/90/119 109/163/119 112/162/119
f 82/87/120 72/164/120 108/165/120 109/88/120
f 72/164/121 67/113/121 105/116/121 108/165/121
f 88/114/122 100/166/122 131/167/122 121/115/122
f 100/166/123 101/168/123 129/169/123 131/167/123
f 101/81/124 91/84/124 128/78/124 129/80/124
f 91/84/125 86/2/125 120/1/125 128/78/125
f 107/8/126 114/153/126 124/154/126 119/9/126
f 114/153/127 115/94/127 130/156/127 124/154/127
f 106/149/128 111/108/128 45/55/128 40/54/128
f 68/111/129 76/97/129 10/22/129 2/21/129
f 42/53/130 52/52/130 49/65/130 39/75/130
