# Blender v2.75 (sub 0) OBJ File: ''
# www.blender.org
mtllib 160mm.mtl
o 90x120mm_Cylinder.000
v 1.013896 0.162764 -2.566062
v 0.504208 0.162764 -2.726738
v -0.025853 0.162764 0.042537
v 1.483628 0.162764 -2.305140
v 1.895352 0.162764 -1.953999
v 2.233246 0.162764 -1.526131
v 2.484322 0.162764 -1.037980
v 2.638935 0.162764 -0.508306
v 2.691142 0.162764 0.042538
v 2.638935 0.162764 0.593381
v 2.484324 0.162764 1.123055
v 2.233246 0.162764 1.611207
v 1.895352 0.162764 2.039075
v 1.483628 0.162764 2.390217
v 1.013896 0.162764 2.651140
v 0.504206 0.162764 2.811814
v -0.025853 0.162764 2.866067
v -0.555913 0.162764 2.811814
v -1.065602 0.162764 2.651139
v -1.535335 0.162764 2.390217
v -1.947059 0.162764 2.039074
v -2.284950 0.162764 1.611206
v -2.536029 0.162764 1.123054
v -2.690640 0.162764 0.593379
v -2.742846 0.162764 0.042536
v -2.690640 0.162764 -0.508308
v -2.536026 0.162764 -1.037983
v -2.284949 0.162764 -1.526133
v -1.947054 0.162764 -1.954002
v -1.535330 0.162764 -2.305143
v -1.065597 0.162764 -2.566064
v -0.025853 0.162764 -2.780991
v -0.555908 0.162764 -2.726739
v 1.601862 -0.000000 2.574105
v 1.095336 -0.000000 2.855464
v -0.025853 -0.000000 0.042537
v 1.095338 0.000000 -2.770388
v 1.601862 0.000000 -2.489028
v -2.955661 -0.000000 0.042536
v -2.899365 0.000000 -0.551455
v 2.680939 -0.000000 1.207689
v 2.410194 -0.000000 1.734077
v -2.461901 -0.000000 1.734075
v -2.732644 -0.000000 1.207688
v 2.847661 0.000000 -0.551451
v 2.903957 -0.000000 0.042538
v -0.025853 0.000000 -3.002151
v 0.545726 0.000000 -2.943649
v -1.147043 -0.000000 2.855463
v -1.653569 -0.000000 2.574104
v -1.653564 0.000000 -2.489030
v -1.147038 0.000000 -2.770390
v 0.545724 -0.000000 3.028725
v -0.025853 -0.000001 3.087227
v 2.045835 0.000000 -2.110382
v 2.410194 0.000000 -1.649000
v -2.732641 0.000000 -1.122617
v -2.461898 0.000000 -1.649003
v 2.045835 -0.000000 2.195458
v -2.899367 -0.000000 0.636525
v 2.847661 -0.000000 0.636527
v -2.097542 -0.000000 2.195457
v -0.597426 0.000000 -2.943649
v 2.680939 0.000000 -1.122613
v -0.597431 -0.000000 3.028723
v -2.097537 0.000000 -2.110385
v -0.563359 0.152354 -2.765667
v -0.025853 0.152354 -2.820683
v 2.265003 0.152354 -1.548182
v 2.519609 0.152354 -1.053169
v -0.025853 0.152354 2.905759
v -0.563364 0.152354 2.850742
v -1.080213 0.152354 -2.602735
v -1.556554 0.152354 2.423218
v -1.974065 0.152354 2.067140
v 0.511658 0.152354 -2.765666
v 1.028513 0.152354 -2.602732
v 2.729335 0.152354 0.042538
v 2.676395 0.152354 0.601124
v -2.571314 0.152354 1.138243
v -2.728100 0.152354 0.601122
v 2.265003 0.152354 1.633258
v 1.922359 0.152354 2.067142
v -2.728100 0.152354 -0.516052
v -2.571312 0.152354 -1.053171
v 1.504849 0.152354 -2.338143
v 1.922359 0.152354 -1.982065
v 1.028513 0.152354 2.687810
v 0.511658 0.152354 2.850744
v -1.974062 0.152354 -1.982068
v -1.556549 0.152354 -2.338145
v -1.080218 0.152354 2.687809
v 2.676395 0.152354 -0.516048
v -2.316709 0.152354 1.633257
v 2.519609 0.152354 1.138245
v -2.781040 0.152354 0.042536
v 1.504847 0.152354 2.423219
v -2.316705 0.152354 -1.548184
vt 0.034191 0.048601
vt 0.036595 0.047751
vt 0.037820 0.069872
vt 0.031927 0.050268
vt 0.029889 0.052689
vt 0.028156 0.055771
vt 0.026795 0.059394
vt 0.025857 0.063420
vt 0.025379 0.067693
vt 0.025379 0.072051
vt 0.025857 0.076325
vt 0.026795 0.080350
vt 0.028156 0.083973
vt 0.029889 0.087054
vt 0.031927 0.089475
vt 0.034191 0.091143
vt 0.036595 0.091993
vt 0.039046 0.091993
vt 0.041449 0.091142
vt 0.043714 0.089475
vt 0.045751 0.087054
vt 0.047484 0.083973
vt 0.048846 0.080349
vt 0.049784 0.076324
vt 0.050262 0.072050
vt 0.050262 0.067692
vt 0.049784 0.063419
vt 0.048846 0.059393
vt 0.047484 0.055770
vt 0.045751 0.052689
vt 0.043714 0.050268
vt 0.039046 0.047750
vt 0.041449 0.048600
vt 0.026906 0.035164
vt 0.025895 0.030824
vt 0.038797 0.023867
vt 0.050687 0.035165
vt 0.049219 0.039072
vt 0.040118 0.000016
vt 0.042710 0.000933
vt 0.032441 0.045003
vt 0.030243 0.042393
vt 0.032441 0.002731
vt 0.034883 0.000933
vt 0.040118 0.047718
vt 0.037475 0.047718
vt 0.052214 0.026217
vt 0.051699 0.030825
vt 0.026906 0.012569
vt 0.028374 0.008663
vt 0.050687 0.012570
vt 0.051699 0.016911
vt 0.025379 0.026216
vt 0.025379 0.021517
vt 0.047350 0.042394
vt 0.045152 0.045004
vt 0.045152 0.002731
vt 0.047350 0.005341
vt 0.028374 0.039071
vt 0.037475 0.000016
vt 0.034883 0.046801
vt 0.030243 0.005341
vt 0.052214 0.021519
vt 0.042710 0.046802
vt 0.025895 0.016910
vt 0.049219 0.008664
vt 0.000117 0.050821
vt 0.002823 0.051205
vt 0.002714 0.055556
vt 0.000009 0.055556
vt 0.002746 0.078650
vt 0.005250 0.076700
vt 0.006341 0.080615
vt 0.003933 0.082933
vt 0.024619 0.000016
vt 0.025309 0.004729
vt 0.022921 0.005917
vt 0.022073 0.001336
vt 0.000447 0.046110
vt 0.003132 0.046894
vt 0.017158 0.005039
vt 0.018419 0.009334
vt 0.016302 0.011528
vt 0.014842 0.007429
vt 0.000117 0.060290
vt 0.002823 0.059906
vt 0.003132 0.064217
vt 0.000447 0.065001
vt 0.006894 0.090925
vt 0.009060 0.087887
vt 0.010654 0.091209
vt 0.008657 0.094556
vt 0.010577 0.013206
vt 0.012405 0.016829
vt 0.010654 0.019902
vt 0.008657 0.016555
vt 0.012643 0.100954
vt 0.014293 0.097079
vt 0.016302 0.099583
vt 0.014842 0.103682
vt 0.005318 0.024079
vt 0.007614 0.026753
vt 0.006341 0.030496
vt 0.003933 0.028178
vt 0.000998 0.069653
vt 0.003641 0.068472
vt 0.004348 0.072643
vt 0.001766 0.074213
vt 0.019574 0.108107
vt 0.020629 0.103650
vt 0.022921 0.105194
vt 0.022073 0.109776
vt 0.001766 0.036898
vt 0.004348 0.038468
vt 0.003641 0.042639
vt 0.000998 0.041459
vt 0.020629 0.007461
vt 0.019574 0.003004
vt 0.007614 0.084358
vt 0.005318 0.087032
vt 0.014293 0.014032
vt 0.012643 0.010157
vt 0.012405 0.094282
vt 0.010576 0.097905
vt 0.009060 0.023224
vt 0.006894 0.020187
vt 0.018419 0.101777
vt 0.017158 0.106072
vt 0.005250 0.034411
vt 0.002746 0.032461
vt 0.025309 0.106382
vt 0.024619 0.111095
vt 0.002964 0.055556
vt 0.003071 0.059869
vt 0.003377 0.064143
vt 0.003882 0.068362
vt 0.004583 0.072497
vt 0.005478 0.076520
vt 0.006559 0.080402
vt 0.007822 0.084112
vt 0.009255 0.087614
vt 0.010837 0.090907
vt 0.012572 0.093954
vt 0.014444 0.096728
vt 0.016436 0.099211
vt 0.018535 0.101387
vt 0.020726 0.103244
vt 0.022999 0.104772
vt 0.025361 0.105941
vt 0.025361 0.005170
vt 0.022999 0.006339
vt 0.020726 0.007867
vt 0.018535 0.009724
vt 0.016436 0.011901
vt 0.014444 0.014384
vt 0.012573 0.017157
vt 0.010837 0.020204
vt 0.009255 0.023497
vt 0.007822 0.026999
vt 0.006559 0.030709
vt 0.005478 0.034591
vt 0.004583 0.038614
vt 0.003882 0.042749
vt 0.003377 0.046968
vt 0.003071 0.051243
vn 0.000000 1.000000 0.000000
vn 0.000000 -1.000000 -0.000000
vn -0.192800 -0.240800 -0.951200
vn -0.095500 0.882100 -0.461300
vn 0.000000 0.882400 -0.470600
vn 0.000000 -0.241900 -0.970300
vn 0.817200 -0.222400 -0.531600
vn 0.402900 0.877900 -0.258800
vn 0.446700 0.876800 -0.177900
vn 0.905100 -0.218700 -0.364700
vn 0.000000 -0.241900 0.970300
vn -0.000000 0.882400 0.470600
vn -0.095500 0.882100 0.461300
vn -0.192800 -0.240800 0.951200
vn -0.378400 -0.237400 -0.894700
vn -0.186900 0.881400 -0.433800
vn -0.549100 -0.232500 0.802800
vn -0.270700 0.880300 0.389500
vn -0.343600 0.879100 0.330300
vn -0.697200 -0.227300 0.679800
vn 0.192900 -0.240800 -0.951200
vn 0.095500 0.882100 -0.461300
vn 0.186900 0.881400 -0.433800
vn 0.378400 -0.237400 -0.894700
vn 0.976500 -0.215700 -0.000000
vn 0.482500 0.875900 0.000000
vn 0.473500 0.876100 0.090500
vn 0.958600 -0.216400 0.185300
vn -0.905100 -0.218700 0.364700
vn -0.446700 0.876800 0.177900
vn -0.473500 0.876100 0.090500
vn -0.958600 -0.216400 0.185300
vn 0.817200 -0.222400 0.531600
vn 0.402900 0.877900 0.258800
vn 0.343600 0.879100 0.330300
vn 0.697200 -0.227300 0.679900
vn -0.958600 -0.216400 -0.185300
vn -0.473500 0.876100 -0.090500
vn -0.446700 0.876800 -0.177900
vn -0.905100 -0.218700 -0.364700
vn 0.549100 -0.232500 -0.802800
vn 0.270700 0.880300 -0.389500
vn 0.343600 0.879100 -0.330300
vn 0.697200 -0.227300 -0.679800
vn 0.378400 -0.237400 0.894700
vn 0.186900 0.881400 0.433800
vn 0.095500 0.882100 0.461300
vn 0.192800 -0.240800 0.951200
vn -0.697200 -0.227300 -0.679900
vn -0.343600 0.879100 -0.330300
vn -0.270700 0.880300 -0.389500
vn -0.549100 -0.232600 -0.802700
vn -0.186900 0.881400 0.433800
vn -0.378400 -0.237400 0.894700
vn 0.473500 0.876100 -0.090500
vn 0.958600 -0.216400 -0.185300
vn -0.402900 0.877900 0.258800
vn -0.817300 -0.222400 0.531600
vn 0.446700 0.876800 0.177900
vn 0.905100 -0.218700 0.364700
vn -0.482500 0.875900 -0.000000
vn -0.976500 -0.215700 0.000000
vn 0.270700 0.880300 0.389500
vn 0.549100 -0.232500 0.802800
vn -0.402900 0.877900 -0.258800
vn -0.817200 -0.222400 -0.531600
vn -0.000000 0.994200 -0.107500
vn 0.020200 0.994400 -0.103400
vn 0.037600 0.995000 -0.092200
vn 0.050200 0.995800 -0.076300
vn 0.058200 0.996600 -0.059000
vn 0.062200 0.997200 -0.042200
vn 0.063800 0.997600 -0.026900
vn 0.064300 0.997800 -0.013000
vn 0.064300 0.997900 0.000000
vn 0.064300 0.997800 0.013000
vn 0.063800 0.997600 0.026900
vn 0.062200 0.997200 0.042200
vn 0.058200 0.996600 0.059000
vn 0.050200 0.995800 0.076300
vn 0.037600 0.995000 0.092200
vn 0.020200 0.994400 0.103400
vn 0.000000 0.994200 0.107500
vn -0.020200 0.994400 0.103400
vn -0.037600 0.995000 0.092100
vn -0.050200 0.995800 0.076300
vn -0.058200 0.996600 0.059000
vn -0.062200 0.997200 0.042200
vn -0.063800 0.997600 0.026900
vn -0.064300 0.997800 0.013000
vn -0.064400 0.997900 -0.000000
vn -0.064300 0.997800 -0.013000
vn -0.063800 0.997600 -0.026900
vn -0.062200 0.997200 -0.042200
vn -0.058200 0.996600 -0.059000
vn -0.050200 0.995800 -0.076300
vn -0.037600 0.995000 -0.092200
vn -0.020200 0.994400 -0.103400
usemtl BaseMaterial.001
s off
f 1/1/1 2/2/1 3/3/1
f 4/4/1 1/1/1 3/3/1
f 5/5/1 4/4/1 3/3/1
f 6/6/1 5/5/1 3/3/1
f 7/7/1 6/6/1 3/3/1
f 8/8/1 7/7/1 3/3/1
f 9/9/1 8/8/1 3/3/1
f 10/10/1 9/9/1 3/3/1
f 11/11/1 10/10/1 3/3/1
f 12/12/1 11/11/1 3/3/1
f 13/13/1 12/12/1 3/3/1
f 14/14/1 13/13/1 3/3/1
f 15/15/1 14/14/1 3/3/1
f 16/16/1 15/15/1 3/3/1
f 17/17/1 16/16/1 3/3/1
f 18/18/1 17/17/1 3/3/1
f 19/19/1 18/18/1 3/3/1
f 20/20/1 19/19/1 3/3/1
f 21/21/1 20/20/1 3/3/1
f 22/22/1 21/21/1 3/3/1
f 23/23/1 22/22/1 3/3/1
f 24/24/1 23/23/1 3/3/1
f 25/25/1 24/24/1 3/3/1
f 26/26/1 25/25/1 3/3/1
f 27/27/1 26/26/1 3/3/1
f 28/28/1 27/27/1 3/3/1
f 29/29/1 28/28/1 3/3/1
f 30/30/1 29/29/1 3/3/1
f 31/31/1 30/30/1 3/3/1
f 32/32/1 33/33/1 3/3/1
f 33/33/1 31/31/1 3/3/1
f 2/2/1 32/32/1 3/3/1
f 34/34/2 35/35/2 36/36/2
f 37/37/2 38/38/2 36/36/2
f 39/39/2 40/40/2 36/36/2
f 41/41/2 42/42/2 36/36/2
f 43/43/2 44/44/2 36/36/2
f 45/45/2 46/46/2 36/36/2
f 47/47/2 48/48/2 36/36/2
f 49/49/2 50/50/2 36/36/2
f 51/51/2 52/52/2 36/36/2
f 53/53/2 54/54/2 36/36/2
f 55/55/2 56/56/2 36/36/2
f 57/57/2 58/58/2 36/36/2
f 59/59/2 34/34/2 36/36/2
f 48/48/2 37/37/2 36/36/2
f 60/60/2 39/39/2 36/36/2
f 61/61/2 41/41/2 36/36/2
f 62/62/2 43/43/2 36/36/2
f 63/63/2 47/47/2 36/36/2
f 64/64/2 45/45/2 36/36/2
f 65/65/2 49/49/2 36/36/2
f 66/66/2 51/51/2 36/36/2
f 35/35/2 53/53/2 36/36/2
f 38/38/2 55/55/2 36/36/2
f 40/40/2 57/57/2 36/36/2
f 42/42/2 59/59/2 36/36/2
f 44/44/2 60/60/2 36/36/2
f 46/46/2 61/61/2 36/36/2
f 50/50/2 62/62/2 36/36/2
f 52/52/2 63/63/2 36/36/2
f 56/56/2 64/64/2 36/36/2
f 54/54/2 65/65/2 36/36/2
f 58/58/2 66/66/2 36/36/2
s 1
f 63/67/3 67/68/4 68/69/5 47/70/6
f 56/71/7 69/72/8 70/73/9 64/74/10
f 54/75/11 71/76/12 72/77/13 65/78/14
f 52/79/15 73/80/16 67/68/4 63/67/3
f 50/81/17 74/82/18 75/83/19 62/84/20
f 48/85/21 76/86/22 77/87/23 37/88/24
f 46/89/25 78/90/26 79/91/27 61/92/28
f 44/93/29 80/94/30 81/95/31 60/96/32
f 42/97/33 82/98/34 83/99/35 59/100/36
f 40/101/37 84/102/38 85/103/39 57/104/40
f 38/105/41 86/106/42 87/107/43 55/108/44
f 35/109/45 88/110/46 89/111/47 53/112/48
f 66/113/49 90/114/50 91/115/51 51/116/52
f 65/78/14 72/77/13 92/117/53 49/118/54
f 64/74/10 70/73/9 93/119/55 45/120/56
f 62/84/20 75/83/19 94/121/57 43/122/58
f 61/92/28 79/91/27 95/123/59 41/124/60
f 60/96/32 81/95/31 96/125/61 39/126/62
f 59/100/36 83/99/35 97/127/63 34/128/64
f 57/104/40 85/103/39 98/129/65 58/130/66
f 55/108/44 87/107/43 69/72/8 56/71/7
f 53/112/48 89/111/47 71/131/12 54/132/11
f 51/116/52 91/115/51 73/80/16 52/79/15
f 49/118/54 92/117/53 74/82/18 50/81/17
f 45/120/56 93/119/55 78/90/26 46/89/25
f 43/122/58 94/121/57 80/94/30 44/93/29
f 41/124/60 95/123/59 82/98/34 42/97/33
f 58/130/66 98/129/65 90/114/50 66/113/49
f 34/128/64 97/127/63 88/110/46 35/109/45
f 37/88/24 77/87/23 86/106/42 38/105/41
f 39/126/62 96/125/61 84/102/38 40/101/37
f 76/86/22 68/69/5 32/133/67 2/134/68
f 77/87/23 76/86/22 2/134/68 1/135/69
f 86/106/42 77/87/23 1/135/69 4/136/70
f 87/107/43 86/106/42 4/136/70 5/137/71
f 69/72/8 87/107/43 5/137/71 6/138/72
f 70/73/9 69/72/8 6/138/72 7/139/73
f 93/119/55 70/73/9 7/139/73 8/140/74
f 78/90/26 93/119/55 8/140/74 9/141/75
f 79/91/27 78/90/26 9/141/75 10/142/76
f 95/123/59 79/91/27 10/142/76 11/143/77
f 82/98/34 95/123/59 11/143/77 12/144/78
f 83/99/35 82/98/34 12/144/78 13/145/79
f 97/127/63 83/99/35 13/145/79 14/146/80
f 88/110/46 97/127/63 14/146/80 15/147/81
f 89/111/47 88/110/46 15/147/81 16/148/82
f 71/131/12 89/111/47 16/148/82 17/149/83
f 72/77/13 71/76/12 17/150/83 18/151/84
f 92/117/53 72/77/13 18/151/84 19/152/85
f 74/82/18 92/117/53 19/152/85 20/153/86
f 75/83/19 74/82/18 20/153/86 21/154/87
f 94/121/57 75/83/19 21/154/87 22/155/88
f 80/94/30 94/121/57 22/155/88 23/156/89
f 81/95/31 80/94/30 23/156/89 24/157/90
f 96/125/61 81/95/31 24/157/90 25/158/91
f 84/102/38 96/125/61 25/158/91 26/159/92
f 85/103/39 84/102/38 26/159/92 27/160/93
f 98/129/65 85/103/39 27/160/93 28/161/94
f 90/114/50 98/129/65 28/161/94 29/162/95
f 91/115/51 90/114/50 29/162/95 30/163/96
f 73/80/16 91/115/51 30/163/96 31/164/97
f 67/68/4 73/80/16 31/164/97 33/165/98
f 68/69/5 67/68/4 33/165/98 32/133/67
f 47/70/6 68/69/5 76/86/22 48/85/21
