# File produced by Open Asset Import Library (http://www.assimp.sf.net)
# (assimp v5.0.0)

mtllib result.mtl

# 48 vertex positions
v  -1.0826771 0.65360487 1.4343845
v  -1.0826771 0.65360487 1.4737545
v  1.0826771 0.65360487 1.4737545
v  1.0826771 0.65360487 1.4343845
v  -1.0826771 -0.52749753 1.4343843
v  1.0826771 -0.52749753 1.4343843
v  1.0826771 -0.52749753 1.4737545
v  -1.0826771 -0.52749753 1.4737545
v  -1.0826771 -0.86506528 1.4343845
v  -1.0826771 -0.86506528 1.4737545
v  1.0826771 -0.86506528 1.4737545
v  1.0826771 -0.86506528 1.4343845
v  -1.0826771 -2.0461676 1.4343843
v  1.0826771 -2.0461676 1.4343843
v  1.0826771 -2.0461676 1.4737545
v  -1.0826771 -2.0461676 1.4737545
v  -1.1307364 -2.6048076 1.4343845
v  -1.1307364 -2.6048076 1.4737545
v  1.0346179 -2.6048076 1.4737545
v  1.0346179 -2.6048076 1.4343845
v  -1.1307364 -3.7859101 1.4343843
v  1.0346179 -3.7859101 1.4343843
v  1.0346179 -3.7859101 1.4737545
v  -1.1307364 -3.7859101 1.4737545
v  1.772038 -2.6048076 1.4343845
v  1.772038 -2.6048076 1.4737545
v  3.9373922 -2.6048076 1.4737545
v  3.9373922 -2.6048076 1.4343845
v  1.772038 -3.7859101 1.4343843
v  3.9373922 -3.7859101 1.4343843
v  3.9373922 -3.7859101 1.4737545
v  1.772038 -3.7859101 1.4737545
v  1.772038 -0.83622974 1.4343845
v  1.772038 -0.83622974 1.4737545
v  3.9373922 -0.83622974 1.4737545
v  3.9373922 -0.83622974 1.4343845
v  1.772038 -2.0173321 1.4343843
v  3.9373922 -2.0173321 1.4343843
v  3.9373922 -2.0173321 1.4737545
v  1.772038 -2.0173321 1.4737545
v  1.772038 0.6055457 1.4343845
v  1.772038 0.6055457 1.4737545
v  3.9373922 0.6055457 1.4737545
v  3.9373922 0.6055457 1.4343845
v  1.772038 -0.5755567 1.4343843
v  3.9373922 -0.5755567 1.4343843
v  3.9373922 -0.5755567 1.4737545
v  1.772038 -0.5755567 1.4737545

# 24 UV coordinates
vt 0 0.76368344 0
vt 0 0.75223601 0
vt 0.62960565 0.75223601 0
vt 0.62960565 0.76368344 0
vt 0.37039432 0.71381557 0
vt 1 0.71381557 0
vt 1 0.72526294 0
vt 0.37039432 0.72526294 0
vt 0 0.35690778 0
vt 0.62960565 0.35690778 0
vt 0.62960565 0.70032907 0
vt 0 0.70032907 0
vt 0.34342125 0.81559044 0
vt 0.34342125 0.82703781 0
vt 0 0.82703781 0
vt 0 0.81559044 0
vt 0 0 0
vt 0.62960565 0 0
vt 0.62960565 0.34342125 0
vt 0 0.34342125 0
vt 0.34342125 0.71381557 0
vt 0.34342125 0.72526294 0
vt 0 0.72526294 0
vt 0 0.71381557 0

# 12 vertex normals
vn 0 1 4.3711388e-08
vn 0 -1 -4.3711388e-08
vn 0 4.3711388e-08 -1
vn 1 0 0
vn 0 -4.3711388e-08 1
vn -1 -0 0
vn 0 1 4.3704834e-08
vn 0 -1 -4.3704834e-08
vn -7.5699047e-10 4.3704834e-08 -1
vn 1 0 -7.5699047e-10
vn 7.5699047e-10 -4.3704834e-08 1
vn -1 -0 7.5699047e-10

# Mesh 'Box001' with 6 faces
g Box001
usemtl Material #25
f  1/1/1 2/2/1 3/3/1 4/4/1
f  5/5/2 6/6/2 7/7/2 8/8/2
f  1/9/3 4/10/3 6/11/3 5/12/3
f  4/13/4 3/14/4 7/15/4 6/16/4
f  3/17/5 2/18/5 8/19/5 7/20/5
f  2/21/6 1/22/6 5/23/6 8/24/6

# Mesh 'Box002' with 6 faces
g Box002
usemtl Material #26
f  9/1/7 10/2/7 11/3/7 12/4/7
f  13/5/8 14/6/8 15/7/8 16/8/8
f  9/9/9 12/10/9 14/11/9 13/12/9
f  12/13/10 11/14/10 15/15/10 14/16/10
f  11/17/11 10/18/11 16/19/11 15/20/11
f  10/21/12 9/22/12 13/23/12 16/24/12

# Mesh 'Box003' with 6 faces
g Box003
usemtl Material #27
f  17/1/1 18/2/1 19/3/1 20/4/1
f  21/5/2 22/6/2 23/7/2 24/8/2
f  17/9/3 20/10/3 22/11/3 21/12/3
f  20/13/4 19/14/4 23/15/4 22/16/4
f  19/17/5 18/18/5 24/19/5 23/20/5
f  18/21/6 17/22/6 21/23/6 24/24/6

# Mesh 'Box004' with 6 faces
g Box004
usemtl Material #31
f  25/1/1 26/2/1 27/3/1 28/4/1
f  29/5/2 30/6/2 31/7/2 32/8/2
f  25/9/3 28/10/3 30/11/3 29/12/3
f  28/13/4 27/14/4 31/15/4 30/16/4
f  27/17/5 26/18/5 32/19/5 31/20/5
f  26/21/6 25/22/6 29/23/6 32/24/6

# Mesh 'Box005' with 6 faces
g Box005
usemtl Material #29
f  33/1/1 34/2/1 35/3/1 36/4/1
f  37/5/2 38/6/2 39/7/2 40/8/2
f  33/9/3 36/10/3 38/11/3 37/12/3
f  36/13/4 35/14/4 39/15/4 38/16/4
f  35/17/5 34/18/5 40/19/5 39/20/5
f  34/21/6 33/22/6 37/23/6 40/24/6

# Mesh 'Box006' with 6 faces
g Box006
usemtl Material #32
f  41/1/1 42/2/1 43/3/1 44/4/1
f  45/5/2 46/6/2 47/7/2 48/8/2
f  41/9/3 44/10/3 46/11/3 45/12/3
f  44/13/4 43/14/4 47/15/4 46/16/4
f  43/17/5 42/18/5 48/19/5 47/20/5
f  42/21/6 41/22/6 45/23/6 48/24/6

